<svg xmlns="http://www.w3.org/2000/svg" xmlns:xlink="http://www.w3.org/1999/xlink" viewBox="0 0 139.89 34.68"><defs><style>.cls-1{fill:#fff;}.cls-2{mask:url(#mask);}</style><mask id="mask" x="0" y="0" width="31.06" height="34.68" maskUnits="userSpaceOnUse"><g transform="translate(0 -0.2)"><g id="mask-2"><polygon id="path-1" class="cls-1" points="0 34.88 0 0.2 31.06 0.2 31.06 34.88 0 34.88"/></g></g></mask></defs><title>shopin-logo</title><g id="Layer_1" data-name="Layer 1"><g id="Desktop_Main_UI" data-name="Desktop Main UI"><g id="hero"><g id="header"><g id="logo"><g id="Group-4"><g class="cls-2"><path id="Fill-2" class="cls-1" d="M26.34,16.85A18.94,18.94,0,0,0,19,16.18c-2,.16-4.38.49-4.57.52-1,.13-1.51-.89-.73-1.72A3.75,3.75,0,0,1,18,14.69a3.55,3.55,0,0,0-2.59-1.41,3.76,3.76,0,0,0-4,2.61,1.26,1.26,0,0,0,0,.27h0c-.77-3.36,5.32-5.95,8.81-2.29A5.73,5.73,0,0,0,15,11.06c-2.67.09-5.48,2-5.51,4.56l0,0c-1.19-4.37,8-8.72,12.83-2.5a7.9,7.9,0,0,0-7-4.2c-4,0-7.79,2.87-7.7,6.19v0C5.82,9.53,18.34,3.48,24.34,12.29A10.08,10.08,0,0,0,15.56,6.7c-4.63-.14-9.84,3.16-9.88,7.5C4.11,7.32,19.43.48,26.39,11.51A12.21,12.21,0,0,0,18.48,5C12.06,3.23,5.38,7,4,11.83c.81-8.18,16.86-13.24,24.38-1.1A14.39,14.39,0,0,0,19.19,2.9,14.8,14.8,0,0,0,3.7,7.84l-.07.09C7.85,0,23.08-2.42,30.46,10A16.65,16.65,0,0,0,16.34.23C7.52-.28.07,6.59,0,12.24c0,1.45.65,4.6,4.72,6a19.13,19.13,0,0,0,7.34.66c2-.15,4.37-.49,4.57-.51a1,1,0,0,1,.73,1.71,3.75,3.75,0,0,1-4.34.29,3.56,3.56,0,0,0,2.59,1.42,3.75,3.75,0,0,0,4-2.62,1.1,1.1,0,0,0,0-.27h0c.77,3.35-5.32,5.95-8.81,2.29A5.73,5.73,0,0,0,16.08,24c2.67-.09,5.48-2,5.51-4.57,0,0,0,0,0,.06,1.19,4.36-8,8.72-12.83,2.49a7.86,7.86,0,0,0,7,4.2c4,0,7.79-2.87,7.7-6.18v0C25.24,25.56,12.72,31.6,6.72,22.8a10.09,10.09,0,0,0,8.78,5.58c4.63.14,9.84-3.16,9.88-7.49C27,27.76,11.63,34.6,4.67,23.57a12.15,12.15,0,0,0,7.91,6.56C19,31.86,25.68,28.07,27,23.26c-.81,8.17-16.86,13.23-24.38,1.1a14.42,14.42,0,0,0,9.22,7.83,14.81,14.81,0,0,0,15.49-4.94l.08-.1C23.21,35.09,8,37.51.6,25.14a16.67,16.67,0,0,0,14.12,9.72c8.82.5,16.27-6.36,16.34-12,0-1.44-.65-4.6-4.72-6" transform="translate(0 -0.2)"/></g></g></g></g></g></g></g><g id="Layer_2" data-name="Layer 2"><path class="cls-1" d="M42.28,22.8a2.64,2.64,0,0,1,2.36-.92,1.28,1.28,0,0,1,.65.54c1.52,2.73,5.16,3,7.33,2a2.76,2.76,0,0,0,.46-4.9A9.29,9.29,0,0,0,51,18.43c-1.58-.63-3.22-1.1-4.76-1.82a5.23,5.23,0,0,1-3-3.72A5.42,5.42,0,0,1,45.68,7a8.14,8.14,0,0,1,8.41-.22A5.75,5.75,0,0,1,56.7,9.69a.94.94,0,0,1-.59,1.41l-.26.09c-1.35.44-1.45.39-2.2-.82a3.89,3.89,0,0,0-3.72-1.74,3.59,3.59,0,0,0-3.11,1.46,2.49,2.49,0,0,0,.61,3.57,20.13,20.13,0,0,0,3,1.4c1.35.58,2.76,1,4.05,1.71a5.46,5.46,0,0,1,2.91,3.68,5.7,5.7,0,0,1-2.48,6.06A9.79,9.79,0,0,1,44.32,26a7.31,7.31,0,0,1-2-2.78Z" transform="translate(0 -0.2)"/><path class="cls-1" d="M101.26,25.07v6c0,.73,0,1.46,0,2.18a.92.92,0,0,1-1,1,8.67,8.67,0,0,1-1.25,0,.89.89,0,0,1-.86-.88c0-.2,0-.4,0-.6V13.65c0-.2,0-.41,0-.61a.88.88,0,0,1,.83-.85,9.89,9.89,0,0,1,1.44,0,.85.85,0,0,1,.82.86c0,.44,0,.89,0,1.44a3.29,3.29,0,0,0,.29-.25,6.44,6.44,0,0,1,6-2.37c4.39.39,7.07,4.25,6.75,8.56a7.86,7.86,0,0,1-3.06,5.92c-2.57,2-6.93,2-9.27-.46C101.76,25.66,101.56,25.41,101.26,25.07Zm-.09-5.27a14.86,14.86,0,0,0,.25,1.51,5,5,0,0,0,8.48,2.18,5.61,5.61,0,0,0,1.22-4.65,4.8,4.8,0,0,0-6-4.18A5.1,5.1,0,0,0,101.17,19.8Z" transform="translate(0 -0.2)"/><path class="cls-1" d="M64.29,14.94a10.78,10.78,0,0,1,.91-1.39,5.46,5.46,0,0,1,4.9-1.69c3.18.3,4.71,2.58,5.05,5.39a15.92,15.92,0,0,1,.1,1.95q0,3.53,0,7c0,.86-.36,1.21-1.21,1.23h-.33c-1.37,0-1.6-.23-1.6-1.59,0-2.26,0-4.53,0-6.79A11.05,11.05,0,0,0,72,17.36a2.91,2.91,0,0,0-3.49-2.74A4.44,4.44,0,0,0,65,17.05a7.1,7.1,0,0,0-.72,3.42c0,1.88,0,3.75,0,5.63,0,1.06-.3,1.36-1.36,1.35a5.65,5.65,0,0,1-1-.06.85.85,0,0,1-.74-.84,4.26,4.26,0,0,1,0-.51V6.77a5.06,5.06,0,0,1,0-.55.79.79,0,0,1,.65-.76,8.33,8.33,0,0,1,1.8,0,.75.75,0,0,1,.63.76,4,4,0,0,1,0,.6v8.12Z" transform="translate(0 -0.2)"/><path class="cls-1" d="M86.54,27.79a8,8,0,1,1,8.1-8A8,8,0,0,1,86.54,27.79Zm5-7.93a11.1,11.1,0,0,0-.17-1.29,4.94,4.94,0,0,0-5.7-3.91A5.23,5.23,0,0,0,81.72,21a5,5,0,0,0,4.55,4A5.08,5.08,0,0,0,91.52,19.86Z" transform="translate(0 -0.2)"/><path class="cls-1" d="M128.92,14.79A14.35,14.35,0,0,1,130.38,13a5.52,5.52,0,0,1,4.32-1.18c3.24.32,4.74,2.61,5.08,5.38a15.18,15.18,0,0,1,.1,1.91c0,2.37,0,4.75,0,7.12,0,.82-.37,1.18-1.2,1.2-.33,0-.66,0-1,0a.92.92,0,0,1-.93-.87,3.94,3.94,0,0,1,0-.6c0-2.31,0-4.62,0-6.94a8.89,8.89,0,0,0-.15-1.85c-.48-2.25-2.2-3.16-4.4-2.35a4.69,4.69,0,0,0-3.1,3.91,11,11,0,0,0-.15,1.9c0,1.83,0,3.66,0,5.49,0,1-.32,1.31-1.31,1.32-.26,0-.52,0-.79,0a1,1,0,0,1-1-1c0-.14,0-.28,0-.42,0-4.14,0-8.29,0-12.43a2,2,0,0,1,.17-.94c.36-.68,2.4-.69,2.79,0a1.54,1.54,0,0,1,.16.71C128.94,13.84,128.92,14.36,128.92,14.79Z" transform="translate(0 -0.2)"/><path class="cls-1" d="M121.1,19.8v6.29c0,1.08-.29,1.37-1.39,1.37-1.57,0-1.75-.18-1.75-1.73v-12c0-.2,0-.4,0-.6a.92.92,0,0,1,.9-.9c.26,0,.52,0,.79,0,1.17,0,1.42.25,1.43,1.41V19.8Z" transform="translate(0 -0.2)"/><path class="cls-1" d="M117.42,7.22a2.05,2.05,0,0,1,2.17-2,2.1,2.1,0,1,1-.1,4.2A2,2,0,0,1,117.42,7.22Z" transform="translate(0 -0.2)"/></g></svg>